<?xml version="1.0" standalone="no"?>
<!DOCTYPE svg PUBLIC "-//W3C//DTD SVG 20010904//EN"
 "http://www.w3.org/TR/2001/REC-SVG-20010904/DTD/svg10.dtd">
<svg version="1.0" xmlns="http://www.w3.org/2000/svg"
 width="1707.000000pt" height="1707.000000pt" viewBox="0 0 1707.000000 1707.000000"
 preserveAspectRatio="xMidYMid meet">
<metadata>
Created by potrace 1.11, written by Peter Selinger 2001-2013
</metadata>
<g transform="translate(0.000000,1707.000000) scale(0.100000,-0.100000)"
fill="#000000" stroke="none">
<path d="M10017 17065 c-1 -2 -60 -6 -132 -9 -132 -7 -181 -11 -270 -22 -27
-3 -66 -7 -85 -9 -19 -2 -53 -6 -75 -9 -22 -3 -57 -8 -77 -10 -67 -9 -126 -19
-343 -61 -170 -33 -149 -28 -317 -69 -216 -53 -547 -154 -768 -236 -107 -40
-211 -78 -230 -85 -162 -60 -704 -313 -890 -416 -30 -17 -104 -58 -165 -92
-299 -165 -718 -437 -1015 -660 -96 -72 -177 -133 -180 -136 -3 -3 -39 -33
-80 -66 -260 -209 -597 -523 -845 -787 -471 -501 -853 -1028 -1208 -1663 -78
-141 -337 -654 -337 -669 0 -3 -14 -36 -31 -73 -17 -38 -40 -90 -50 -118 -11
-27 -23 -59 -28 -70 -118 -270 -253 -667 -351 -1030 -22 -82 -42 -159 -45
-170 -2 -11 -13 -60 -25 -110 -23 -101 -68 -314 -76 -360 -2 -16 -9 -55 -15
-85 -11 -61 -14 -75 -23 -140 -4 -25 -8 -52 -10 -60 -2 -14 -7 -46 -22 -150
-5 -34 -9 -61 -19 -150 -3 -25 -8 -58 -10 -75 -3 -16 -7 -59 -10 -95 -3 -36
-8 -86 -10 -113 -6 -56 -13 -148 -22 -312 -15 -247 -7 -975 12 -1130 2 -16 7
-66 10 -110 3 -44 8 -93 10 -110 3 -16 7 -55 10 -86 3 -31 7 -72 10 -90 2 -19
7 -52 9 -74 11 -89 29 -207 52 -340 32 -187 32 -186 55 -295 11 -52 22 -106
25 -120 3 -14 10 -43 16 -65 5 -22 12 -47 13 -55 13 -62 86 -334 105 -395 93
-289 122 -377 178 -525 135 -364 336 -800 511 -1114 34 -60 61 -110 61 -111 0
-4 166 -279 215 -355 242 -378 528 -762 780 -1049 240 -272 528 -563 760 -765
50 -43 104 -91 120 -105 116 -103 527 -421 544 -421 5 0 11 -4 13 -9 4 -11
247 -175 405 -275 327 -205 745 -430 1058 -571 174 -78 312 -137 420 -179 66
-26 129 -51 140 -56 31 -13 184 -67 345 -120 339 -112 709 -208 1050 -270 30
-6 66 -12 80 -15 14 -3 54 -10 90 -16 36 -5 76 -12 90 -14 14 -2 39 -6 55 -9
17 -3 68 -10 115 -16 47 -6 99 -12 115 -15 86 -12 237 -27 395 -41 392 -33
1059 -38 1425 -9 168 13 204 16 235 20 19 2 62 7 95 10 69 7 116 12 200 25 33
5 80 12 105 15 67 8 217 35 285 50 33 7 80 16 105 20 46 7 226 47 293 65 20 5
54 14 75 20 281 73 738 226 907 304 17 7 100 44 185 82 85 37 159 71 163 74 4
4 10 18 12 31 9 54 32 217 40 279 3 19 9 67 15 105 5 39 12 88 15 110 2 22 6
49 9 60 2 11 7 46 11 79 3 32 8 68 10 80 2 11 6 42 9 67 4 25 8 57 10 70 3 13
7 46 11 72 4 27 8 56 10 65 1 10 6 40 9 67 4 28 20 147 37 265 16 118 32 228
34 245 2 16 6 46 9 65 3 19 8 58 11 85 4 28 8 57 10 65 3 8 7 42 11 75 3 33 7
62 9 65 2 3 6 34 10 69 4 34 8 70 10 80 2 9 7 44 11 76 4 33 8 62 9 65 1 5 11
77 20 140 2 14 6 43 9 65 3 22 8 58 11 80 3 23 7 50 9 60 4 21 15 102 20 145
4 33 18 131 21 150 1 8 6 40 10 70 4 30 9 63 11 74 2 10 6 44 10 75 3 31 8 64
10 74 1 10 10 70 19 135 9 64 18 128 20 142 9 60 17 117 20 140 1 14 6 45 9
70 4 25 11 79 17 120 6 41 12 86 14 100 7 49 17 115 20 135 1 11 6 44 10 74 3
30 9 63 11 75 2 12 6 41 9 66 3 25 11 77 17 115 13 85 18 725 6 725 -7 0 -277
-221 -326 -267 -7 -7 -34 -29 -60 -50 -26 -21 -51 -43 -57 -49 -5 -6 -32 -28
-60 -50 -57 -45 -93 -75 -109 -90 -32 -30 -234 -180 -326 -241 -196 -131 -321
-202 -525 -302 -230 -113 -385 -176 -565 -230 -58 -18 -116 -36 -130 -41 -65
-24 -408 -100 -520 -116 -19 -2 -46 -7 -59 -10 -13 -3 -43 -7 -65 -10 -23 -2
-74 -8 -114 -12 -81 -9 -882 -8 -922 1 -14 3 -52 8 -85 11 -33 3 -86 10 -117
16 -32 5 -82 14 -110 19 -29 5 -64 12 -78 15 -14 3 -36 8 -50 10 -135 22 -460
118 -685 201 -309 114 -542 226 -865 413 -104 61 -427 284 -450 311 -3 3 -39
35 -80 71 -136 118 -376 364 -491 505 -435 533 -708 1117 -845 1810 -8 41 -34
201 -39 240 -25 204 -26 750 -1 965 5 49 19 145 22 165 2 11 9 49 15 85 42
261 145 626 258 910 41 103 200 431 262 540 36 64 171 279 208 331 14 20 33
47 41 59 19 28 130 171 178 230 174 212 381 420 606 608 121 102 379 277 561
382 120 70 409 211 520 254 39 15 84 34 100 41 52 23 359 122 435 140 165 39
282 65 310 70 19 3 49 8 65 11 17 3 37 7 45 9 8 2 42 7 75 11 33 3 68 8 77 9
9 2 48 7 85 10 37 4 79 8 93 11 129 21 661 21 840 -1 14 -1 57 -6 95 -9 39 -4
81 -9 95 -11 14 -2 41 -6 60 -9 79 -12 121 -19 235 -43 66 -13 128 -26 137
-28 166 -36 498 -148 666 -226 34 -15 64 -29 67 -29 3 0 61 -30 131 -65 264
-137 508 -298 776 -513 12 -9 58 -48 102 -87 45 -38 128 -110 186 -160 58 -49
110 -94 116 -100 6 -5 39 -35 74 -65 35 -30 93 -81 129 -112 36 -31 69 -54 74
-51 8 5 3 396 -7 443 -2 14 -7 48 -10 75 -7 54 -7 55 -30 220 -22 157 -26 187
-31 215 -3 14 -7 45 -10 70 -3 25 -7 56 -10 69 -2 14 -7 47 -10 75 -3 28 -8
58 -10 66 -2 8 -7 40 -10 70 -3 30 -10 78 -15 105 -5 28 -14 88 -20 135 -6 47
-13 96 -15 110 -2 14 -16 106 -30 205 -14 99 -28 196 -31 215 -2 19 -9 64 -14
100 -5 36 -12 82 -15 103 -3 20 -7 54 -10 75 -3 20 -7 48 -10 62 -2 14 -7 45
-10 70 -3 25 -7 56 -9 70 -5 29 -26 169 -32 214 -10 74 -71 503 -78 551 -3 19
-9 57 -21 135 -2 19 -7 46 -9 60 -2 14 -8 52 -12 85 -4 33 -8 62 -9 65 0 3 -5
32 -9 65 -4 32 -9 66 -11 75 -1 8 -6 38 -9 65 -4 28 -9 61 -11 75 -11 73 -35
241 -40 285 -4 28 -8 57 -10 65 -2 8 -7 38 -10 65 -4 28 -8 61 -10 75 -3 14
-7 41 -9 60 -3 19 -8 53 -11 75 -3 22 -8 55 -10 72 -3 18 -7 50 -10 70 -3 21
-15 101 -26 178 -11 77 -22 152 -24 166 -3 14 -7 43 -10 65 -2 21 -8 57 -12
79 -9 56 -10 58 -11 77 -2 16 -121 59 -292 106 -19 5 -120 35 -225 65 -157 46
-343 96 -415 112 -8 2 -44 10 -80 19 -72 17 -83 19 -190 41 -106 22 -182 36
-270 50 -19 3 -48 8 -65 11 -16 3 -37 7 -45 9 -8 2 -39 7 -69 10 -30 4 -63 9
-75 11 -30 5 -82 12 -156 20 -36 3 -67 7 -70 9 -3 2 -43 6 -90 10 -47 4 -92 8
-100 10 -25 5 -176 18 -350 30 -90 6 -1606 15 -1613 10z"/>
</g>
</svg>
