<svg xmlns="http://www.w3.org/2000/svg" data-name="Layer 1" viewBox="0 0 512 512"><polyline fill="#fddd5a" points="281 459.532 422.94 459.532 422.94 504.5 504.5 422.94 422.94 341.379 422.94 386.348 281 386.348"/><polygon fill="#fed030" points="422.94 341.379 422.94 371.379 474.5 422.94 422.94 474.5 422.94 504.5 504.5 422.94 422.94 341.379"/><polyline fill="#fddd5a" points="231 125.652 89.06 125.652 89.06 170.621 7.5 89.06 89.06 7.5 89.06 52.468 231 52.468"/><circle cx="256" cy="256" r="155" fill="#fff"/><path fill="#e1e1e3" d="M256.00006,101a156.24149,156.24149,0,0,0-22.5,1.63135,155.012,155.012,0,0,1,0,306.7373A155.00482,155.00482,0,1,0,256.00006,101Z"/><path fill="#8b8893" d="M256.00006,418.5c-89.60254,0-162.5-72.89746-162.5-162.5s72.89746-162.5,162.5-162.5,162.5,72.89746,162.5,162.5S345.6026,418.5,256.00006,418.5Zm0-310c-81.332,0-147.5,66.16846-147.5,147.5s66.168,147.5,147.5,147.5,147.5-66.16846,147.5-147.5S337.33209,108.5,256.00006,108.5Z"/><path fill="#aeadb3" d="M178.18074,207.315l71.25281-62.03635a10,10,0,0,1,13.1329,0L333.81926,207.315Z"/><path fill="#8b8893" d="M262.56647 145.27863a9.99985 9.99985 0 0 0-13.13281 0l-8.4336 7.34265L303.8194 207.315h30zM178.18074 207.315H333.81926a0 0 0 0 1 0 0v20a10 10 0 0 1-10 10H188.18074a10 10 0 0 1-10-10v-20A0 0 0 0 1 178.18074 207.315z"/><path fill="#787681" d="M303.8194,207.315v20a10.00011,10.00011,0,0,1-10,10h30a10.00011,10.00011,0,0,0,10-10v-20Z"/><path fill="#8b8893" d="M333.81926,340.03272H178.18074l7.77786-23.181a10,10,0,0,1,9.48058-6.819H316.56082a10,10,0,0,1,9.48058,6.819Z"/><path fill="#787681" d="M326.04132,316.85175a9.99985,9.99985,0,0,0-9.48047-6.819h-30a9.99985,9.99985,0,0,1,9.48047,6.819l7.77808,23.181h30Z"/><circle cx="256" cy="180" r="7.5" fill="#3c3b41"/><path fill="#3c3b41" d="M256,172.50019a7.5,7.5,0,1,0,7.5,7.5A7.5,7.5,0,0,0,256,172.50019ZM509.80322,417.63691l-81.56-81.56055a7.50042,7.50042,0,0,0-12.80323,5.30371V378.8498H362.25726A162.1829,162.1829,0,0,0,418.5,256.00019c0-89.60254-72.89746-162.5-162.5-162.5a161.517,161.517,0,0,0-85.94476,24.65039H89.06006a7.49974,7.49974,0,0,0-7.5,7.5v26.86328L18.10645,89.05976,81.56006,25.60664V52.46992a7.49974,7.49974,0,0,0,7.5,7.5H223.89014a7.5,7.5,0,0,0,0-15H96.56006V7.50019A7.50041,7.50041,0,0,0,83.75684,2.19648L2.19678,83.75605a7.50079,7.50079,0,0,0,0,10.60742L83.75684,175.924a7.50041,7.50041,0,0,0,12.80322-5.30371V133.15058h53.18268A162.1829,162.1829,0,0,0,93.5,256.00019c0,89.60254,72.89746,162.5,162.5,162.5a161.517,161.517,0,0,0,85.94476-24.65039h80.99518a7.49974,7.49974,0,0,0,7.5-7.5V359.48652l63.45362,63.4541-63.45362,63.45313V459.53046a7.49975,7.49975,0,0,0-7.5-7.5H288.10986a7.5,7.5,0,0,0,0,15H415.43994v37.46973a7.50024,7.50024,0,0,0,12.80323,5.30371l81.56-81.55957a7.50079,7.50079,0,0,0,0-10.60742ZM256,403.50019c-81.33154,0-147.5-66.168-147.5-147.5s66.16846-147.5,147.5-147.5,147.5,66.168,147.5,147.5S337.33154,403.50019,256,403.50019ZM341.28174,206.57a7.44981,7.44981,0,0,0-.17615-1.00463c-.0152-.06324-.03161-.12561-.04846-.18848a7.44551,7.44551,0,0,0-.78741-1.87427c-.03479-.05884-.06989-.11694-.10633-.1748a7.503,7.503,0,0,0-.59039-.82007c-.02307-.02759-.04919-.05274-.07275-.08008a7.55048,7.55048,0,0,0-.67414-.68506c-.02929-.02624-.05224-.05737-.082-.08325l-71.25293-62.03711a17.56985,17.56985,0,0,0-22.98242,0l-71.25293,62.03711c-.02972.02588-.05267.057-.082.08325a7.54905,7.54905,0,0,0-.67413.68506c-.02356.02734-.04969.05249-.07276.08008a7.50435,7.50435,0,0,0-.59039.82007c-.03644.05786-.07153.116-.10632.1748a7.44516,7.44516,0,0,0-.78742,1.87427c-.01684.06287-.03326.12524-.04846.18848a7.45138,7.45138,0,0,0-.17615,1.00463c-.0014.014-.00079.02808-.00207.042-.02161.23193-.03552.46606-.03552.70361v20a17.52,17.52,0,0,0,17.5,17.5H188.5v59.15723a17.47566,17.47566,0,0,0-9.65185,10.49316l-7.77784,23.18164a7.5,7.5,0,0,0,7.11036,9.88574H333.81934a7.5,7.5,0,0,0,7.11035-9.88574L333.15186,314.465A17.47619,17.47619,0,0,0,323.5,303.97272v-59.1571h.31934a17.52,17.52,0,0,0,17.5-17.5v-20c0-.23755-.01392-.47168-.03553-.70361C341.28253,206.59809,341.28314,206.58405,341.28174,206.57ZM254.3584,150.93476a2.51128,2.51128,0,0,1,3.2832,0l56.14209,48.88086H198.21631ZM188.60791,332.53339l4.46094-13.29492a2.498,2.498,0,0,1,2.37012-1.70508H316.561a2.49843,2.49843,0,0,1,2.37011,1.70411l4.46094,13.29589Zm14.89209-30V244.81562h15v57.71777Zm30,0V244.81562h15v57.71777Zm30,0V244.81562h15v57.71777Zm30,0V244.81562h15v57.71777Zm32.81934-75.21777a2.50263,2.50263,0,0,1-2.5,2.5H188.18067a2.50263,2.50263,0,0,1-2.5-2.5v-12.5H326.31934Z"/></svg>