<?xml version="1.0" ?><!DOCTYPE svg  PUBLIC '-//W3C//DTD SVG 1.1//EN'  'http://www.w3.org/Graphics/SVG/1.1/DTD/svg11.dtd'><svg enable-background="new 0 0 87 56" height="56px" id="Layer_1" version="1.1" viewBox="0 0 87 56" width="87px" xml:space="preserve" xmlns="http://www.w3.org/2000/svg" xmlns:xlink="http://www.w3.org/1999/xlink"><g><path d="M86,52.636C86,53.941,84.84,55,83.407,55H3.593C2.161,55,1,53.941,1,52.636V3.365C1,2.059,2.161,1,3.593,1   h79.814C84.84,1,86,2.059,86,3.365V52.636z" fill="#F1F2F2"/><g><radialGradient cx="13.3945" cy="22.5005" gradientUnits="userSpaceOnUse" id="SVGID_1_" r="18.1367"><stop offset="0" style="stop-color:#81C241"/><stop offset="1" style="stop-color:#8BC53F"/></radialGradient><path d="M4.927,27.206C4.99,22.571,11.344,18.897,19.121,19c4.242,0.055,8.022,1.224,10.581,3.027    c-2.534-2.257-6.869-3.777-11.811-3.845C10.004,18.079,3.56,21.72,3.5,26.315c-0.023,1.859,0.998,3.589,2.743,4.995    C5.385,30.015,4.913,28.609,4.927,27.206z" fill="url(#SVGID_1_)"/><path d="M18.526,27.626c0,0.527-0.133,0.891-0.402,1.094c-0.268,0.201-0.685,0.305-1.249,0.305h-6.136    c0,0.605,0.302,1.07,0.913,1.394c0.49,0.254,1.095,0.384,1.804,0.384c0.552,0,1.215-0.168,1.991-0.506    c0.778-0.336,1.274-0.505,1.492-0.505c0.393,0,0.727,0.135,1,0.403c0.275,0.271,0.416,0.593,0.416,0.971    c0,0.864-0.697,1.539-2.091,2.021c-1.058,0.365-2.142,0.546-3.244,0.546c-1.769,0-3.2-0.546-4.294-1.637    c-1.098-1.091-1.644-2.466-1.644-4.125c0-1.579,0.57-2.927,1.709-4.051c1.138-1.129,2.548-1.69,4.229-1.69    c1.57,0,2.877,0.533,3.929,1.596C18.001,24.892,18.526,26.158,18.526,27.626z M15.11,26.839c-0.015-0.48-0.255-0.917-0.713-1.31    c-0.465-0.395-0.953-0.59-1.474-0.59c-0.535,0-1.032,0.195-1.492,0.59c-0.462,0.394-0.693,0.83-0.693,1.31H15.11z" fill="#1C437D"/><path d="M28.58,31.529c0,0.716-0.502,1.282-1.5,1.701c-0.799,0.336-1.64,0.503-2.525,0.503    c-1.714,0-3.105-0.571-4.177-1.717c-1.03-1.094-1.545-2.44-1.545-4.045c0-1.604,0.524-2.961,1.578-4.074    c1.051-1.11,2.43-1.667,4.145-1.667c0.985,0,1.835,0.135,2.545,0.404c0.987,0.363,1.48,0.93,1.48,1.698    c0,0.392-0.13,0.735-0.391,1.031c-0.259,0.294-0.595,0.446-0.998,0.446c-0.275,0-0.67-0.086-1.193-0.255    c-0.52-0.167-0.933-0.251-1.236-0.251c-0.81,0-1.438,0.267-1.887,0.801c-0.419,0.484-0.629,1.104-0.629,1.868    c0,0.721,0.189,1.333,0.564,1.827c0.42,0.576,1.003,0.863,1.757,0.863c0.334,0,0.787-0.091,1.364-0.273    c0.579-0.181,0.999-0.272,1.26-0.272c0.373,0,0.702,0.149,0.975,0.445C28.442,30.857,28.58,31.182,28.58,31.529z" fill="#1C437D"/><path d="M39.722,27.971c0,1.605-0.519,2.952-1.547,4.045c-1.075,1.146-2.467,1.717-4.18,1.717    c-1.711,0-3.104-0.571-4.175-1.717c-1.03-1.094-1.543-2.44-1.543-4.045c0-1.604,0.514-2.951,1.543-4.043    c1.086-1.133,2.479-1.698,4.175-1.698c1.712,0,3.105,0.564,4.18,1.698C39.204,25.02,39.722,26.367,39.722,27.971z M36.305,27.971    c0-0.721-0.188-1.332-0.561-1.826c-0.417-0.563-0.999-0.842-1.748-0.842c-0.746,0-1.328,0.28-1.744,0.842    c-0.375,0.494-0.561,1.105-0.561,1.826c0,0.721,0.187,1.338,0.561,1.846c0.416,0.565,0.998,0.844,1.744,0.844    c0.749,0,1.331-0.278,1.748-0.844C36.116,29.31,36.305,28.692,36.305,27.971z" fill="#1C437D"/><radialGradient cx="46.3896" cy="26.2734" gradientUnits="userSpaceOnUse" id="SVGID_2_" r="6.4651"><stop offset="0" style="stop-color:#81C241"/><stop offset="1" style="stop-color:#8BC53F"/></radialGradient><path d="M40.829,31.956V20.592c0-0.459,0.149-0.833,0.447-1.124c0.296-0.29,0.713-0.434,1.252-0.434    l3.851-0.019c1.594,0.013,2.922,0.463,3.983,1.353c1.058,0.89,1.588,2.056,1.588,3.499c0,1.468-0.533,2.636-1.599,3.5    c-1.068,0.86-2.349,1.292-3.843,1.292h-2.415v3.302c0,0.513-0.157,0.9-0.467,1.167c-0.313,0.271-0.702,0.402-1.164,0.402    c-0.465,0-0.854-0.132-1.165-0.402c-0.311-0.27-0.469-0.654-0.469-1.153V31.956z M44.094,25.969h2.219    c0.683,0.015,1.227-0.182,1.632-0.596c0.406-0.412,0.609-0.918,0.609-1.526c0-0.605-0.203-1.116-0.609-1.528    c-0.405-0.41-0.949-0.617-1.632-0.617l-2.219-0.018V25.969z" fill="url(#SVGID_2_)"/><radialGradient cx="57.4219" cy="28.0322" gradientUnits="userSpaceOnUse" id="SVGID_3_" r="5.6016"><stop offset="0" style="stop-color:#81C241"/><stop offset="1" style="stop-color:#8BC53F"/></radialGradient><path d="M63.002,24.415v7.214c0,0.108,0,0.216,0,0.324c0,0.106-0.005,0.221-0.021,0.345    c-0.041,0.31-0.164,0.594-0.359,0.85s-0.569,0.384-1.12,0.384c-0.448,0-0.783-0.105-0.999-0.324    c-0.221-0.212-0.385-0.511-0.503-0.889c-0.406,0.444-0.857,0.779-1.351,1.001c-0.491,0.224-1.035,0.336-1.629,0.336    c-1.466,0-2.696-0.525-3.687-1.572c-0.995-1.046-1.492-2.387-1.492-4.021c0-1.604,0.503-2.952,1.511-4.03    c1.008-1.079,2.23-1.623,3.668-1.623c0.578,0,1.137,0.111,1.663,0.33c0.528,0.219,0.97,0.561,1.316,1.026    c0.044-0.357,0.21-0.65,0.503-0.884c0.288-0.232,0.623-0.349,0.999-0.349c0.551,0,0.925,0.133,1.12,0.396    c0.195,0.261,0.318,0.549,0.359,0.861c0.017,0.121,0.021,0.235,0.021,0.343c0,0.108,0,0.21,0,0.305V24.415z M54.973,28.052    c0,0.066,0,0.129,0,0.193c0,0.061,0.007,0.124,0.023,0.19c0.058,0.634,0.287,1.223,0.686,1.759c0.399,0.54,0.99,0.811,1.772,0.811    c0.754,0,1.326-0.271,1.719-0.811c0.393-0.536,0.615-1.125,0.675-1.759c0.014-0.066,0.023-0.13,0.023-0.19    c0-0.064,0-0.117,0-0.172c0-0.069-0.006-0.14-0.013-0.214c-0.007-0.072-0.011-0.152-0.011-0.233    c-0.072-0.632-0.305-1.212-0.697-1.737c-0.391-0.526-0.956-0.789-1.696-0.789c-0.77,0-1.351,0.263-1.751,0.789    c-0.4,0.525-0.636,1.105-0.707,1.737c0,0.081-0.006,0.161-0.012,0.233c-0.006,0.074-0.012,0.145-0.012,0.214V28.052z" fill="url(#SVGID_3_)"/><radialGradient cx="68.5957" cy="30.1758" gradientUnits="userSpaceOnUse" id="SVGID_4_" r="6.5641"><stop offset="0" style="stop-color:#81C241"/><stop offset="1" style="stop-color:#8BC53F"/></radialGradient><path d="M63.459,24.519c-0.043-0.095-0.077-0.205-0.098-0.324c-0.021-0.122-0.032-0.258-0.032-0.404    c0-0.301,0.11-0.559,0.337-0.773c0.226-0.216,0.481-0.364,0.774-0.445c0.058-0.012,0.115-0.022,0.173-0.031    c0.058-0.004,0.117-0.009,0.175-0.009c0.378,0,0.698,0.09,0.968,0.274c0.268,0.182,0.467,0.435,0.599,0.758l2.152,5.461    l2.31-5.482c0.127-0.313,0.33-0.555,0.597-0.737c0.27-0.184,0.59-0.274,0.968-0.274c0.059,0,0.115,0.004,0.173,0.009    c0.06,0.009,0.117,0.019,0.175,0.031c0.289,0.081,0.552,0.229,0.784,0.445c0.232,0.214,0.35,0.472,0.35,0.773    c0,0.146-0.012,0.282-0.034,0.404c-0.021,0.12-0.063,0.235-0.12,0.345l-5.243,12.128c-0.131,0.311-0.315,0.579-0.556,0.81    c-0.239,0.229-0.547,0.344-0.926,0.344c-0.536,0-0.941-0.132-1.217-0.396c-0.275-0.262-0.412-0.549-0.412-0.859    c0-0.039,0.002-0.088,0.009-0.141c0.006-0.056,0.011-0.103,0.011-0.141c0.015-0.097,0.04-0.189,0.077-0.284    c0.035-0.095,0.066-0.189,0.098-0.283l1.37-3.153L63.459,24.519z" fill="url(#SVGID_4_)"/><radialGradient cx="78.5059" cy="28.0322" gradientUnits="userSpaceOnUse" id="SVGID_5_" r="5.1901"><stop offset="0" style="stop-color:#81C241"/><stop offset="1" style="stop-color:#8BC53F"/></radialGradient><path d="M73.796,31.631l4.915-6.43h-3.632c-0.393,0.015-0.724-0.09-1.001-0.313    c-0.275-0.222-0.414-0.536-0.414-0.94c0-0.405,0.139-0.718,0.414-0.938c0.277-0.224,0.608-0.336,1.001-0.336l7.112-0.021    c0.059,0.013,0.128,0.027,0.209,0.04c0.079,0.015,0.163,0.034,0.25,0.059c0.146,0.057,0.275,0.146,0.391,0.275    c0.117,0.127,0.175,0.314,0.175,0.557c0,0.12-0.01,0.225-0.034,0.313c-0.019,0.087-0.044,0.171-0.075,0.254    c-0.026,0.039-0.06,0.086-0.098,0.141c-0.037,0.053-0.074,0.108-0.117,0.163l-4.94,6.407h4.134    c0.393,0.016,0.726,0.133,0.999,0.356c0.277,0.222,0.416,0.535,0.416,0.938c0,0.407-0.139,0.716-0.416,0.931    c-0.273,0.218-0.606,0.324-0.999,0.324h-7.287c-0.351,0-0.65-0.077-0.906-0.232c-0.253-0.154-0.38-0.401-0.38-0.738    c0-0.122,0.018-0.235,0.055-0.344s0.075-0.201,0.118-0.282c0.031-0.027,0.052-0.055,0.066-0.082    c0.014-0.025,0.028-0.053,0.045-0.079V31.631z" fill="url(#SVGID_5_)"/></g></g></svg>