<?xml version="1.0" encoding="utf-8"?>
<!-- Generator: Adobe Illustrator 16.0.0, SVG Export Plug-In . SVG Version: 6.00 Build 0)  -->
<!DOCTYPE svg PUBLIC "-//W3C//DTD SVG 1.1//EN" "http://www.w3.org/Graphics/SVG/1.1/DTD/svg11.dtd">
<svg version="1.1" id="Layer_1" xmlns="http://www.w3.org/2000/svg" xmlns:xlink="http://www.w3.org/1999/xlink" x="0px" y="0px"
	 width="255.12px" height="141.73px" viewBox="0 0 255.12 141.73" enable-background="new 0 0 255.12 141.73" xml:space="preserve">
<g>
	<path fill="#8DC640" d="M218.83,68.858c-1.274,0.888-3.123,1.327-5.653,1.327h-1.098h-1.411l1.924-10.391h0.975h0.87
		c2.1,0,3.634,0.338,4.691,1.024c0.826,0.538,1.805,1.603,1.805,3.624C220.933,66.877,219.794,68.187,218.83,68.858 M69.158,81.899
		H49.741l1.255-6.792h12.179l1.384-7.65H52.497l1.166-6.722h19.383L69.158,81.899z M229.29,54.905
		c-2.855-1.957-7.175-2.943-12.839-2.943h-14.834l-5.514,29.938h-19.432l1.246-6.792h11.707l1.392-7.629l-11.7,0.021l1.253-6.763
		h12.056l1.604-8.774h-24.49l-5.234,28.401h-8.98l5.272-28.401h-12.803l-5.234,28.401h-8.756l5.277-28.401h-12.79l-5.528,29.938
		h-19.57l1.233-6.792h11.76l1.385-7.585l-11.742-0.011l1.247-6.776h12.19l1.596-8.774H42.765l-4.343,23.725L29.77,51.962H16.491
		L9.344,90.679h12.681l4.325-24.377l8.397,24.377h45.452l5.525-29.943h7.112l-5.528,29.943h119.598l3.464-18.903l5.615,18.903
		h12.688l-5.813-15.445l1.327-0.287c2.924-0.626,5.213-1.975,6.801-3.996c1.591-2.04,2.399-4.659,2.399-7.805
		C233.388,59.482,232.05,56.788,229.29,54.905"/>
	<path fill="#8DC640" d="M239.746,86.1l1.728-0.09c0.366-0.017,0.655-0.072,0.857-0.159c0.202-0.085,0.355-0.215,0.453-0.39
		c0.098-0.174,0.145-0.357,0.132-0.553c-0.015-0.29-0.132-0.521-0.349-0.698c-0.218-0.175-0.554-0.247-1.005-0.226l-1.923,0.098
		L239.746,86.1z M239.107,89.538l-0.311-6.09l2.702-0.136c0.54-0.028,0.953,0.006,1.242,0.102c0.29,0.094,0.523,0.276,0.707,0.545
		c0.183,0.268,0.285,0.566,0.298,0.902c0.025,0.432-0.098,0.802-0.362,1.114c-0.264,0.309-0.685,0.52-1.264,0.63
		c0.217,0.094,0.386,0.184,0.5,0.277c0.247,0.204,0.483,0.464,0.709,0.778l1.136,1.604l-1.004,0.051l-0.87-1.226
		c-0.254-0.355-0.462-0.625-0.624-0.811c-0.161-0.186-0.306-0.313-0.43-0.385c-0.121-0.072-0.251-0.119-0.374-0.145
		c-0.094-0.014-0.243-0.016-0.451-0.005l-0.93,0.047l0.134,2.707L239.107,89.538z"/>
	<path fill="#8DC640" d="M236.469,86.591c-0.062-1.26,0.366-2.468,1.211-3.402c0.845-0.936,2.007-1.489,3.269-1.553
		c2.598-0.135,4.821,1.872,4.955,4.473c0.004,0.08,0.009,0.165,0.009,0.242c0,2.496-1.966,4.587-4.485,4.719
		C238.826,91.202,236.605,89.193,236.469,86.591 M240.895,80.665c-1.515,0.081-2.915,0.743-3.932,1.872
		c-1.018,1.128-1.538,2.588-1.46,4.107c0.164,3.132,2.843,5.549,5.977,5.392c3.13-0.162,5.552-2.843,5.39-5.975v-0.003
		C246.712,82.925,244.033,80.506,240.895,80.665"/>
</g>
</svg>
